<svg width="20" height="20" viewBox="0 0 20 20" fill="none" xmlns="http://www.w3.org/2000/svg">
<path fill-rule="evenodd" clip-rule="evenodd" d="M9.75 0C4.36522 0 0 4.36522 0 9.75C0 15.1348 4.36522 19.5 9.75 19.5C15.1348 19.5 19.5 15.1348 19.5 9.75C19.4943 4.36758 15.1324 0.0056839 9.75 0ZM18 9.75C18.0008 10.8084 17.7971 11.857 17.4 12.8381L13.2094 10.2609C13.0312 10.151 12.8319 10.0798 12.6244 10.0519L10.485 9.76313C9.88227 9.68453 9.29117 9.97491 8.985 10.5H8.1675L7.81125 9.76313C7.61166 9.34732 7.23093 9.04723 6.78 8.95031L6.03 8.78813L6.76313 7.5H8.32969C8.58318 7.4995 8.83245 7.43501 9.05437 7.3125L10.2028 6.67875C10.3037 6.62251 10.398 6.55522 10.4841 6.47812L13.0069 4.19625C13.5279 3.72931 13.6549 2.96324 13.3125 2.35313L13.2788 2.29219C16.1601 3.65842 17.9977 6.56115 18 9.75ZM11.1853 1.62562L12 3.08437L9.47719 5.36625L8.32969 6H6.76313C6.22644 5.99921 5.73022 6.28521 5.46187 6.75L4.64344 8.17781L3.69187 5.64281L4.7175 3.2175C6.55317 1.79914 8.90178 1.22049 11.1862 1.62375L11.1853 1.62562ZM1.5 9.75C1.49875 8.52377 1.77233 7.31284 2.30062 6.20625L3.36375 9.04406C3.54378 9.52151 3.95418 9.87469 4.45312 9.98156L6.46219 10.4137L6.81938 11.1562C7.07224 11.6714 7.59551 11.9984 8.16938 12H8.30812L7.63031 13.5216C7.38621 14.0692 7.49165 14.7096 7.89844 15.15L7.91156 15.1631L9.75 17.0569L9.56812 17.9944C5.08749 17.8901 1.50743 14.2318 1.5 9.75ZM11.1169 17.8856L11.2228 17.3409C11.3111 16.8717 11.172 16.3884 10.8478 16.0378C10.8432 16.0337 10.8388 16.0293 10.8347 16.0247L9 14.1319L10.2844 11.25L12.4237 11.5387L16.71 14.175C15.4542 16.1471 13.4221 17.4953 11.1169 17.8856Z" fill="white"/>
</svg>
