<svg width="21" height="21" viewBox="0 0 21 21" fill="none" xmlns="http://www.w3.org/2000/svg">
<path fill-rule="evenodd" clip-rule="evenodd" d="M20.562 5.37821L15.6223 0.439462C15.341 0.158084 14.9594 1.54972e-06 14.5615 1.54972e-06C14.1636 1.54972e-06 13.782 0.158084 13.5007 0.439462L0.439467 13.4998C0.158089 13.7811 6.19888e-06 14.1627 6.19888e-06 14.5606C6.19888e-06 14.9584 0.158089 15.34 0.439467 15.6213L5.37915 20.5601C5.66047 20.8415 6.04205 20.9995 6.43994 20.9995C6.83782 20.9995 7.2194 20.8415 7.50072 20.5601L20.562 7.49977C20.8433 7.21846 21.0014 6.83688 21.0014 6.43899C21.0014 6.04111 20.8433 5.65953 20.562 5.37821ZM6.43947 19.4998L1.50072 14.5601L4.50072 11.5601L6.97009 14.0304C7.26315 14.3235 7.73829 14.3235 8.03134 14.0304C8.3244 13.7373 8.3244 13.2622 8.03134 12.9691L5.56103 10.4998L7.50072 8.56009L9.97009 11.0304C10.2631 11.3235 10.7383 11.3235 11.0313 11.0304C11.3244 10.7373 11.3244 10.2622 11.0313 9.96915L8.56103 7.49977L10.5007 5.56009L12.9701 8.0304C13.2631 8.32346 13.7383 8.32346 14.0313 8.0304C14.3244 7.73734 14.3244 7.26221 14.0313 6.96915L11.561 4.49977L14.561 1.49977L19.5007 6.43946L6.43947 19.4998Z" fill="white"/>
</svg>
