<svg width="18" height="20" viewBox="0 0 18 20" fill="none" xmlns="http://www.w3.org/2000/svg">
<path fill-rule="evenodd" clip-rule="evenodd" d="M17.7927 14.2444C17.2723 13.3481 16.4989 10.8122 16.4989 7.5C16.4989 3.35786 13.141 0 8.9989 0C4.85677 0 1.4989 3.35786 1.4989 7.5C1.4989 10.8131 0.724526 13.3481 0.204214 14.2444C-0.0662327 14.7081 -0.0681996 15.2811 0.199056 15.7467C0.466312 16.2123 0.962035 16.4996 1.4989 16.5H5.32484C5.68157 18.2456 7.21725 19.4992 8.9989 19.4992C10.7805 19.4992 12.3162 18.2456 12.673 16.5H16.4989C17.0356 16.4993 17.531 16.2119 17.798 15.7463C18.0651 15.2808 18.063 14.708 17.7927 14.2444ZM8.9989 18C8.04564 17.9997 7.19603 17.3987 6.87828 16.5H11.1195C10.8018 17.3987 9.95216 17.9997 8.9989 18ZM1.4989 15C2.22078 13.7588 2.9989 10.8825 2.9989 7.5C2.9989 4.18629 5.68519 1.5 8.9989 1.5C12.3126 1.5 14.9989 4.18629 14.9989 7.5C14.9989 10.8797 15.7752 13.7559 16.4989 15H1.4989Z" fill="white"/>
</svg>
