<svg width="20" height="19" viewBox="0 0 20 19" fill="none" xmlns="http://www.w3.org/2000/svg">
<path fill-rule="evenodd" clip-rule="evenodd" d="M19.3987 18.3774C19.2647 18.6095 19.017 18.7525 18.749 18.7524H0.749023C0.481212 18.7522 0.233868 18.6091 0.100081 18.3771C-0.0337059 18.1451 -0.0336328 17.8594 0.100273 17.6274C1.52809 15.159 3.7284 13.389 6.29621 12.5499C3.68547 10.9957 2.43487 7.88882 3.24084 4.95934C4.04681 2.02985 6.71069 -0.000109196 9.74902 -0.000109196C12.7874 -0.000109196 15.4512 2.02985 16.2572 4.95934C17.0632 7.88882 15.8126 10.9957 13.2018 12.5499C15.7696 13.389 17.97 15.159 19.3978 17.6274C19.532 17.8593 19.5324 18.1452 19.3987 18.3774Z" fill="white"/>
</svg>
